<?xml version="1.0" encoding="UTF-8" standalone="no"?>
<!-- Created with Inkscape (http://www.inkscape.org/) -->

<svg
   width="460.55988mm"
   height="124.41832mm"
   viewBox="0 0 460.55988 124.41832"
   version="1.1"
   id="svg1"
   xml:space="preserve"
   xmlns="http://www.w3.org/2000/svg"
   xmlns:svg="http://www.w3.org/2000/svg"><defs
     id="defs1" /><g
     id="layer2"
     transform="translate(-273.25558,-22.358121)"><path
       style="fill:#000000"
       d="m 321.38927,146.62226 c -0.0873,-0.0873 -0.61318,-0.15868 -1.16858,-0.15859 -0.5554,9e-5 -1.22591,-0.11539 -1.49002,-0.25662 -0.46127,-0.24667 -1.02985,-0.40584 -2.16564,-0.60626 -0.71306,-0.12583 -3.26511,-1.07065 -3.4845,-1.29004 -0.0966,-0.0966 -0.33265,-0.17558 -0.52464,-0.17558 -0.64454,0 -7.47858,-3.44042 -8.51343,-4.28587 -0.24311,-0.19861 -0.97779,-0.64426 -1.63264,-0.99034 -0.65484,-0.34607 -1.36922,-0.78325 -1.5875,-0.97151 -0.21828,-0.18826 -0.64319,-0.55618 -0.94425,-0.8176 -0.30106,-0.26141 -0.9559,-0.7683 -1.45521,-1.12641 -2.02309,-1.45098 -5.25412,-4.34217 -7.12554,-6.37607 -1.0914,-1.18616 -2.43086,-2.63976 -2.97656,-3.2302 -0.5457,-0.59045 -0.99219,-1.19533 -0.99219,-1.34418 0,-0.14885 -0.4814,-0.84155 -1.06978,-1.53934 -0.58838,-0.69778 -1.43344,-1.9556 -1.8779,-2.79515 -0.44446,-0.83955 -0.90674,-1.49962 -1.02729,-1.46683 -0.12055,0.0328 -0.29346,-0.27855 -0.38423,-0.69185 -0.0908,-0.41331 -0.37547,-0.97732 -0.63264,-1.25336 -0.52993,-0.56882 -2.15191,-3.44366 -2.15191,-3.81411 0,-0.13373 -0.39063,-0.87054 -0.86806,-1.63735 -0.47744,-0.76681 -1.02787,-1.87045 -1.2232,-2.45253 -0.31002,-0.9239 -0.71349,-1.91954 -1.60827,-3.96875 -0.34396,-0.7877 -1.2132,-3.73436 -1.67809,-5.688538 -0.22502,-0.94589 -0.49586,-2.07698 -0.60186,-2.51354 -0.10601,-0.43657 -0.17951,-0.86415 -0.16334,-0.95018 0.0162,-0.086 -0.0776,-0.91947 -0.20831,-1.85208 -0.7093,-5.05967 -0.77469,-12.31765 -0.14756,-16.38004 0.60513,-3.91991 1.19787,-6.92186 1.4889,-7.54062 0.13689,-0.29104 0.96995,-2.67229 1.85123,-5.29167 0.88129,-2.61937 1.79143,-5.17922 2.02254,-5.68854 1.26964,-2.79806 3.25084,-6.55559 4.04329,-7.66849 0.29277,-0.41116 0.53232,-0.82822 0.53232,-0.92678 0,-0.0986 0.41672,-0.68776 0.92604,-1.30932 0.50932,-0.62157 0.92604,-1.23776 0.92604,-1.36932 0,-0.13157 0.53578,-0.89237 1.19062,-1.69067 0.65485,-0.7983 1.19074,-1.51183 1.19087,-1.58562 2.2e-4,-0.122 3.33245,-3.47333 7.20959,-7.25091 0.83671,-0.81522 1.66314,-1.48222 1.83651,-1.48222 0.17337,0 0.0841,0.17481 -0.19838,0.38846 -0.77048,0.58277 -0.10352,0.48068 0.80933,-0.12388 1.21466,-0.80443 1.32586,-0.62909 0.20764,0.32739 -0.55076,0.47111 -1.59384,1.41655 -2.31794,2.10099 -0.72411,0.68443 -1.36903,1.19195 -1.43316,1.12782 -0.0641,-0.0641 0.34973,-0.52143 0.91968,-1.01622 0.56996,-0.49479 0.95492,-0.98295 0.85548,-1.0848 -0.16868,-0.17276 -2.06816,1.52589 -2.06816,1.84951 0,0.081 -0.8182,1.00773 -1.81822,2.05934 -2.05448,2.16047 -4.38315,4.87694 -5.2383,6.11066 -0.31583,0.45564 -1.00044,1.29655 -1.52136,1.86869 -0.52091,0.57213 -0.94712,1.18447 -0.94712,1.36075 0,0.17628 -0.18397,0.3911 -0.40882,0.47739 -0.22485,0.0863 -0.57695,0.5455 -0.78243,1.02049 -0.20549,0.47499 -0.61005,1.21338 -0.89903,1.64086 -0.28898,0.42749 -0.46514,0.87478 -0.39146,0.99399 0.0737,0.11922 -0.0929,0.54336 -0.37026,0.94255 -1.27276,1.83208 -2.61442,4.82684 -2.16243,4.82684 0.14527,0 0.0906,0.26789 -0.1216,0.59531 -0.21215,0.32743 -0.53151,1.19063 -0.70968,1.91823 -0.17818,0.72761 -0.54313,1.73788 -0.811,2.24504 -0.26787,0.50717 -0.48704,1.17194 -0.48704,1.47726 0,0.30532 -0.0857,0.64082 -0.19042,0.74555 -0.10473,0.10474 -0.22339,0.68285 -0.26369,1.28471 -0.0403,0.60186 -0.1833,1.16228 -0.31777,1.24539 -0.41514,0.25657 -0.59177,1.44746 -0.31686,2.1364 l 0.26145,0.65524 0.0168,-0.64571 c 0.0302,-1.16204 2.13059,-7.50274 2.85129,-8.60744 0.18727,-0.28704 0.34048,-0.72692 0.34048,-0.97752 0,-0.60753 1.70799,-4.33342 2.09657,-4.57358 0.17233,-0.1065 0.23127,-0.42536 0.13481,-0.72928 -0.0988,-0.3114 -0.066,-0.47487 0.0776,-0.38612 0.13696,0.0846 0.71062,-0.73143 1.27478,-1.8135 0.56417,-1.08207 1.48608,-2.4561 2.04868,-3.05339 0.56261,-0.59729 1.6576,-2.05826 2.43332,-3.2466 3.03745,-4.65314 10.83759,-12.25302 16.40817,-15.9869 2.91172,-1.95168 7.29154,-3.97982 13.89063,-6.43226 3.46963,-1.28943 10.17401,-2.64363 15.08124,-3.04622 1.23693,-0.10147 2.48709,-0.21754 2.77813,-0.25792 0.29104,-0.0404 1.5412,-0.099 2.77812,-0.13016 l 2.24896,-0.0567 -1.5875,-0.21894 c -1.95758,-0.26997 -10.48953,-0.027 -10.83468,0.30854 -0.13825,0.1344 -0.73356,0.24948 -1.32292,0.25574 -0.58936,0.006 -2.26219,0.24535 -3.71739,0.53131 -3.55156,0.69791 -3.3818,0.6592 -3.88026,0.88482 -0.24237,0.1097 -0.77815,0.16081 -1.19062,0.11358 -0.77139,-0.0883 3.26885,-1.12553 7.45213,-1.91308 2.51795,-0.47404 8.12195,-0.97358 11.40545,-1.01668 5.0387,-0.0661 12.61848,0.96501 16.11121,2.19175 0.87312,0.30667 1.88515,0.6246 2.24896,0.70651 0.3638,0.0819 0.78052,0.23384 0.92604,0.33763 0.14552,0.10379 0.91942,0.39735 1.71979,0.65237 0.80036,0.25502 2.17815,0.80138 3.06175,1.21414 0.8836,0.41276 1.95517,0.82917 2.38125,0.92536 0.42609,0.0962 2.32543,0.93522 4.22076,1.86452 2.8188,1.38209 3.49774,1.82656 3.72998,2.44184 0.22728,0.60213 2.40097,2.43164 2.88911,2.43164 0.13735,0 2.5738,1.83743 2.76715,2.08683 0.18709,0.24133 1.66473,1.40995 2.37956,1.88192 0.3306,0.21828 0.88295,0.69331 1.22743,1.05563 0.34449,0.36231 0.62634,0.54363 0.62634,0.40293 0,-0.31571 3.65626,3.54612 4.83061,5.1022 0.47186,0.62525 1.29241,1.6801 1.82345,2.34413 0.53103,0.66402 1.24368,1.7598 1.58366,2.43506 0.33998,0.67527 0.94729,1.6921 1.34959,2.25964 0.40229,0.56754 0.73144,1.25215 0.73144,1.52135 0,0.26921 0.20836,0.70145 0.46302,0.96053 0.25466,0.25908 0.62854,0.82463 0.83084,1.25677 0.96583,2.06312 1.20584,2.46353 1.40342,2.34141 0.11723,-0.0725 0.21314,0.16023 0.21314,0.51705 0,0.35682 0.16661,0.7127 0.37024,0.79084 0.20363,0.0781 0.51033,0.59689 0.68155,1.15279 0.17123,0.55589 0.38129,1.1893 0.46681,1.40758 0.0855,0.21828 0.17162,0.45641 0.19134,0.52917 0.0197,0.0728 0.12748,0.40065 0.23945,0.72865 0.11198,0.32799 0.2389,0.86377 0.28205,1.19062 0.0431,0.32685 0.23683,0.95146 0.43041,1.38802 0.19358,0.43656 0.36935,0.91281 0.3906,1.05833 0.10748,0.73586 0.4903,1.8904 0.7259,2.18921 0.14619,0.18542 0.19838,0.40454 0.11598,0.48694 -0.0824,0.0824 0.0208,0.63333 0.22928,1.2243 0.20851,0.59096 0.35924,1.20527 0.33497,1.36514 -0.0243,0.15986 0.0224,0.46926 0.1038,0.68754 0.0814,0.21828 0.35679,1.4089 0.61206,2.64583 0.51528,2.49681 0.69413,12.00634 0.30283,16.10193 -0.37452,3.91998 -2.10415,12.059258 -2.83255,13.329378 -0.14491,0.25268 -0.26347,0.68403 -0.26347,0.95855 0,0.27452 -0.24959,1.07981 -0.55464,1.78953 -1.00758,2.34424 -2.61932,5.77748 -3.02784,6.44978 -0.22106,0.3638 -0.58993,1.10794 -0.81971,1.65364 -0.22977,0.54571 -0.5239,0.99219 -0.65362,0.99219 -0.12973,0 -0.23586,0.12559 -0.23586,0.2791 0,0.15351 -0.45578,0.95718 -1.01284,1.78594 -0.55706,0.82876 -1.0891,1.71519 -1.18232,1.96986 -0.0932,0.25466 -0.29228,0.46302 -0.44237,0.46302 -0.15009,0 -0.27497,0.14882 -0.27752,0.33073 -0.003,0.1819 -0.621,0.98557 -1.37435,1.78593 -0.75334,0.80037 -1.39296,1.58627 -1.42137,1.74645 -0.0816,0.4604 -5.05773,5.5054 -7.35762,7.45952 -1.14849,0.97583 -2.22006,1.8933 -2.38125,2.03882 -0.89464,0.80768 -4.60705,3.3945 -5.45244,3.79929 -0.59225,0.28358 -0.58149,0.25365 0.10287,-0.28608 0.42037,-0.33153 1.01569,-0.81704 1.32291,-1.0789 0.54513,-0.46463 0.53946,-0.46615 -0.23516,-0.0628 -0.43656,0.22733 -1.02736,0.56064 -1.31289,0.74069 -2.87707,1.81424 -6.49232,3.72735 -6.49232,3.4356 0,-0.12093 0.67882,-0.55279 1.50848,-0.9597 0.82966,-0.4069 2.61115,-1.50327 3.95886,-2.43637 1.34772,-0.93309 2.54414,-1.69992 2.65872,-1.70405 0.11457,-0.004 0.7441,-0.49096 1.39894,-1.08184 0.65485,-0.59089 1.55637,-1.35937 2.00338,-1.70773 0.44701,-0.34836 0.97314,-0.93309 1.16918,-1.2994 0.19605,-0.36631 0.52195,-0.66602 0.72423,-0.66602 0.21342,0 0.28749,-0.12991 0.17647,-0.30954 -0.13104,-0.21203 -0.0433,-0.25276 0.27842,-0.1293 0.3491,0.13397 0.43033,0.0776 0.3163,-0.21962 -0.10219,-0.26629 0.007,-0.39987 0.32694,-0.39987 0.26421,0 0.99069,-0.59255 1.61438,-1.31678 0.6237,-0.72423 1.23723,-1.25299 1.36339,-1.17501 0.12617,0.078 0.2294,-0.0973 0.2294,-0.38938 0,-0.29213 0.31281,-0.86471 0.69514,-1.27239 0.38233,-0.40768 1.00202,-1.21748 1.37708,-1.79957 0.37507,-0.58208 1.19335,-1.67263 1.8184,-2.42344 0.62505,-0.75082 1.13646,-1.42856 1.13646,-1.5061 0,-0.0775 0.75199,-1.42777 1.6711,-3.00051 1.41277,-2.41749 3.0914,-5.7116 3.0914,-6.0665 0,-0.0552 -0.10462,-0.10032 -0.23248,-0.10032 -0.12787,0 -0.38555,0.38695 -0.57264,0.8599 -0.18708,0.47294 -1.0575,2.16161 -1.93428,3.7526 -2.44929,4.44448 -6.33209,9.3702 -9.15347,11.61209 -0.51668,0.41056 -1.77674,1.54165 -2.80014,2.51354 -1.99902,1.89842 -3.4864,3.11719 -4.57823,3.75145 -0.37575,0.21828 -0.9857,0.67023 -1.35545,1.00433 -0.94719,0.85587 -2.25823,1.64612 -2.95291,1.7799 -0.32499,0.0626 -0.65916,0.21411 -0.74262,0.33672 -0.0835,0.12262 -1.09318,0.68462 -2.24384,1.2489 -1.15066,0.56428 -2.42952,1.30988 -2.84192,1.65689 -0.55779,0.46935 -0.93807,0.58958 -1.48492,0.46947 -0.47118,-0.10349 -0.92324,-0.0157 -1.25912,0.24458 -0.49573,0.38413 -0.48474,0.39203 0.20358,0.14647 0.40019,-0.14277 0.72761,-0.19692 0.72761,-0.12033 0,0.22075 -1.90514,0.96013 -2.77813,1.07817 -0.43656,0.059 -1.0914,0.18304 -1.4552,0.27556 -0.36381,0.0925 -0.75076,0.1487 -0.8599,0.12483 -0.10914,-0.0239 -0.19844,0.0955 -0.19844,0.26528 0,0.16977 -0.0747,0.23402 -0.1659,0.14278 -0.0912,-0.0913 -0.58203,0.008 -1.09064,0.22048 -0.50861,0.21252 -1.11857,0.37884 -1.35546,0.36962 -0.45189,-0.0176 -0.30686,-0.0966 1.39193,-0.75856 0.42036,-0.1638 0.70311,-0.35899 0.62833,-0.43377 -0.0748,-0.0748 -0.5973,0.0436 -1.16117,0.26309 -0.85389,0.33236 -4.78192,1.47517 -5.07041,1.47517 -0.0479,0 -0.0236,-0.10273 0.054,-0.22828 0.0776,-0.12556 0.7097,-0.37917 1.40467,-0.56357 3.7173,-0.98633 6.48311,-2.07178 6.24808,-2.45207 -0.10052,-0.16263 -0.0441,-0.1987 0.13637,-0.0872 0.43269,0.26742 1.4064,-0.0863 1.1921,-0.433 -0.0989,-0.16009 -0.0549,-0.21095 0.0998,-0.11531 0.31569,0.1951 2.71533,-0.62842 2.71533,-0.93186 0,-0.10957 -0.1786,-0.13068 -0.39688,-0.0469 -0.84186,0.32306 -0.33927,-0.17926 0.8599,-0.85944 0.69122,-0.39206 2.14974,-1.26101 3.24114,-1.93099 1.09141,-0.66998 2.3213,-1.39145 2.7331,-1.60328 0.87182,-0.44845 6.939,-5.45861 7.71794,-6.37333 0.29104,-0.34177 -0.3914,0.14683 -1.51654,1.08577 -3.51837,2.93611 -4.54038,3.68077 -5.48001,3.9929 -0.50112,0.16647 -1.13276,0.50914 -1.40364,0.76151 -0.58153,0.54177 -5.20979,2.90599 -5.68873,2.90592 -0.18183,-2e-5 -0.8962,0.28675 -1.5875,0.63728 -2.14521,1.08773 -3.82807,1.7745 -3.97883,1.62374 -0.19236,-0.19235 -0.18246,-0.19817 1.79588,-1.05536 0.94588,-0.40984 1.89838,-0.89891 2.11667,-1.08682 0.21828,-0.18792 0.99218,-0.65696 1.71979,-1.0423 2.82359,-1.49542 4.4098,-2.61831 4.28897,-3.0362 -0.0306,-0.10585 0.79053,-0.83581 1.82474,-1.62215 4.0807,-3.10265 8.22285,-7.12327 8.09661,-7.85905 -0.0573,-0.33383 -0.0172,-0.36131 0.15564,-0.10655 0.18667,0.2752 0.30019,0.26209 0.5726,-0.0661 0.24858,-0.29952 0.25587,-0.4094 0.0272,-0.4094 -0.17193,0 -0.23116,-0.13177 -0.13162,-0.29283 0.12622,-0.20422 0.25103,-0.18421 0.41249,0.0661 0.19244,0.29839 0.27381,0.29317 0.48213,-0.0309 0.16673,-0.25939 0.14459,-0.467 -0.0661,-0.62027 -0.21999,-0.15999 -0.19212,-0.19133 0.0912,-0.10256 0.4707,0.14747 0.86753,-0.13533 1.97329,-1.40627 0.64374,-0.7399 0.67044,-0.81309 0.1413,-0.38729 l -0.65246,0.52503 0.42635,-0.66145 c 0.23449,-0.36381 0.61739,-0.62648 0.85089,-0.58372 0.2335,0.0428 0.42454,-0.0465 0.42454,-0.19844 0,-0.1519 -0.12703,-0.27618 -0.28229,-0.27618 -0.15527,0 0.12826,-0.50601 0.63007,-1.12448 1.17189,-1.44434 2.48208,-3.5209 3.79782,-6.01927 1.28248,-2.43522 1.50996,-3.00302 1.10216,-2.75098 -0.16634,0.1028 -0.24453,0.0792 -0.17375,-0.0524 0.0708,-0.13162 0.34341,-0.71557 0.60585,-1.29765 0.26245,-0.58208 0.88395,-1.92309 1.38111,-2.98003 0.815,-1.73263 1.65996,-4.08515 1.66742,-4.64235 0.002,-0.11773 -0.1162,-0.14047 -0.26172,-0.0505 -0.14552,0.0899 -0.2604,0.008 -0.25529,-0.18283 0.0181,-0.672838 0.72735,-3.684698 0.91053,-3.866348 0.19449,-0.19287 -0.0191,1.32262 -0.39352,2.7924 -0.12049,0.47295 -0.12348,0.8599 -0.007,0.8599 0.11682,0 0.27761,-0.26789 0.3573,-0.59531 0.0797,-0.32742 0.2627,-1.07156 0.40669,-1.65365 0.144,-0.58208 0.34294,-1.83224 0.44211,-2.77812 0.0992,-0.94589 0.23712,-1.81298 0.30656,-1.92687 0.0694,-0.11389 0.16393,-2.19748 0.20999,-4.6302 0.0801,-4.23301 -0.27065,-8.31903 -0.91349,-10.64085 -0.77524,-2.80001 -1.18538,-3.96875 -1.39275,-3.96875 -0.12753,0 -0.15053,0.13162 -0.0511,0.29249 0.7335,1.18683 1.41932,10.9756 1.04719,14.94673 -0.19136,2.04214 -0.657,2.55747 -0.51999,0.57548 0.043,-0.62168 0.0957,-2.73767 0.1171,-4.7022 0.035,-3.21181 -0.0307,-4.37016 -0.39768,-7.01146 -0.40924,-2.94513 -1.67994,-7.14746 -3.031,-10.02372 -0.5547,-1.18091 -1.25587,-2.68289 -1.55815,-3.33773 -0.52824,-1.14434 -1.11469,-2.19618 -2.38399,-4.27586 -0.32514,-0.5327 -0.75859,-1.03281 -0.96324,-1.11134 -0.20464,-0.0785 -0.60677,-0.65471 -0.89361,-1.2804 -0.28685,-0.62569 -0.76877,-1.40053 -1.07093,-1.72186 -0.30217,-0.32134 -0.5494,-0.64907 -0.5494,-0.7283 0,-0.0792 -1.13447,-1.27483 -2.52103,-2.6569 -1.38657,-1.38206 -2.42837,-2.5175 -2.31511,-2.5232 0.11326,-0.006 -0.15126,-0.16971 -0.58782,-0.36448 -0.43656,-0.19477 -1.44859,-0.97048 -2.24896,-1.7238 -0.80036,-0.75332 -1.81239,-1.55945 -2.24896,-1.7914 -0.43656,-0.23195 -1.16217,-0.70174 -1.61247,-1.04397 -0.4503,-0.34223 -0.91888,-0.62224 -1.04128,-0.62224 -0.12241,0 -0.46836,-0.22305 -0.76878,-0.49566 -0.52603,-0.47733 -2.23417,-1.27323 -7.02851,-3.27489 -3.7055,-1.54706 -9.29266,-3.00183 -13.94409,-3.63072 -2.6295,-0.35551 -11.18926,-0.37734 -12.61249,-0.0322 -0.56336,0.13664 -1.18843,0.18544 -1.38906,0.10845 -0.20062,-0.077 -0.36477,-0.006 -0.36477,0.15712 0,0.1634 -0.32742,0.27343 -0.7276,0.24452 -0.40019,-0.0289 -1.0048,0.0974 -1.34359,0.28075 -0.3388,0.18333 -0.78147,0.26983 -0.98372,0.19222 -0.20225,-0.0776 -0.42905,-0.0419 -0.50399,0.0794 -0.075,0.12127 -0.70384,0.36033 -1.39754,0.53126 -2.79319,0.68823 -8.98112,3.40182 -10.94311,4.79887 -0.40262,0.2867 -1.20488,0.78985 -1.7828,1.11811 -1.36723,0.7766 -9.16532,8.45637 -10.36348,10.20624 -0.50932,0.74384 -1.0508,1.35373 -1.20329,1.35531 -0.15248,0.002 -0.72984,0.7133 -1.28302,1.58161 -0.55318,0.86832 -1.12684,1.55292 -1.27481,1.52136 -0.14796,-0.0316 -0.49564,0.338 -0.77261,0.82127 -0.27697,0.48327 -0.38222,0.80367 -0.23389,0.71199 0.42232,-0.261 0.31573,0.29073 -0.12717,0.6583 -0.21828,0.18116 -0.39688,0.50025 -0.39688,0.70908 0,0.37845 -0.71659,1.76273 -1.91347,3.69635 -0.34675,0.56019 -0.84193,1.61384 -1.10041,2.34144 -0.25847,0.72761 -0.62687,1.68011 -0.81865,2.11667 -0.64046,1.45789 -1.20534,3.77124 -1.49688,6.13019 -0.15882,1.28506 -0.44004,2.57974 -0.62492,2.87706 -0.4955,0.79685 -0.6864,8.0117 -0.31122,11.76254 0.1976,1.97556 0.90665,5.87412 1.21664,6.68945 0.13894,0.36546 0.18869,0.72841 0.11054,0.80656 -0.14159,0.14159 0.17193,0.58793 1.01854,1.449998 0.56837,0.57874 0.88971,1.44562 1.12186,3.02639 0.10151,0.69122 0.28244,1.25677 0.40208,1.25677 0.11963,0 0.28747,0.20836 0.37298,0.46302 0.15933,0.47453 0.71718,1.41723 0.97855,1.65364 0.0804,0.0728 0.42527,0.60854 0.76629,1.19063 1.11208,1.89819 2.47785,3.83646 2.7033,3.83646 0.12133,0 0.22061,0.15288 0.22061,0.33974 0,0.40868 1.14127,1.78921 3.3718,4.07868 0.9086,0.93262 1.78139,1.93742 1.93952,2.2329 0.15814,0.29547 0.66625,0.69547 1.12914,0.88888 0.46289,0.1934 1.20831,0.68934 1.65649,1.10208 1.27643,1.17548 1.94128,1.67647 2.22482,1.67647 0.14386,0 0.26156,0.11104 0.26156,0.24675 0,0.13571 0.2493,0.32588 0.554,0.42259 0.3047,0.0967 1.06333,0.51957 1.68584,0.9397 1.33288,0.89955 4.49952,2.35859 5.12701,2.36229 0.2411,0.001 1.03367,0.27855 1.76127,0.61584 0.72761,0.33729 1.87887,0.75215 2.55836,0.9219 0.67949,0.16975 1.57246,0.44663 1.98437,0.61529 0.70523,0.28876 1.39971,0.3946 3.02948,0.46169 0.67116,0.0276 3.2677,1.84805 3.80488,2.66758 0.14552,0.22201 0.32411,0.69456 0.39687,1.05011 0.0728,0.35556 0.24446,0.6162 0.38155,0.57922 0.1371,-0.037 0.47211,0.62461 0.74448,1.47021 0.38045,1.18112 0.46428,2.02802 0.3617,3.65412 -0.21314,3.37892 -0.29636,3.72501 -1.1544,4.80093 -0.95878,1.20223 -2.45,2.65462 -2.45,2.38622 0,-0.10334 -0.26789,-0.0124 -0.59531,0.20217 -0.32742,0.21453 -0.68336,0.39913 -0.79097,0.41021 -0.24184,0.0249 -0.85751,0.2402 -2.01947,0.7062 -0.93772,0.37606 -1.95305,0.46706 -2.22105,0.19906 z m 35.52472,-5.06145 c 0.50932,-0.21935 1.34276,-0.57406 1.85208,-0.78823 1.465,-0.61603 4.06301,-1.93991 4.49791,-2.29203 0.21829,-0.17673 0.72412,-0.48504 1.12409,-0.68514 0.39996,-0.20009 0.68098,-0.41003 0.62449,-0.46653 -0.0565,-0.0565 -0.91482,0.32072 -1.9074,0.83825 -0.99257,0.51753 -1.90966,0.94096 -2.03796,0.94096 -0.12831,0 -0.518,0.22395 -0.86597,0.49767 -0.34798,0.27372 -1.61692,0.88727 -2.81986,1.36345 -1.20295,0.47618 -2.30624,0.97999 -2.45176,1.11957 -0.31877,0.30576 0.64224,0.0501 1.98438,-0.52797 z m 1.78042,0.0333 c -0.0879,-0.0879 -0.31612,-0.0973 -0.50712,-0.0209 -0.21106,0.0845 -0.14837,0.14716 0.15985,0.15986 0.27892,0.0115 0.43519,-0.0511 0.34727,-0.13897 z m 3.28041,-1.33867 c 0.33216,-0.40265 0.30671,-0.41088 -0.29833,-0.0965 -0.88701,0.46094 -0.95378,0.53664 -0.47337,0.53664 0.22471,0 0.57198,-0.19809 0.7717,-0.44019 z m 12.27637,-4.00663 c -0.0815,-0.0815 -0.29495,-1.6e-4 -0.47443,0.18066 -0.25936,0.2613 -0.22897,0.29169 0.14811,0.14811 0.26094,-0.0994 0.40779,-0.2473 0.32632,-0.32877 z m 1.5805,-9.04693 c 0.0899,-0.14552 0.0445,-0.26458 -0.10106,-0.26458 -0.14552,0 -0.33817,0.11906 -0.4281,0.26458 -0.0899,0.14552 -0.0445,0.26459 0.10106,0.26459 0.14552,0 0.33817,-0.11907 0.4281,-0.26459 z m 16.92551,-18.12396 c 1.4626,-4.11601 1.73605,-4.97455 1.62103,-5.08957 -0.121,-0.121 -0.95175,1.64896 -0.95175,2.02776 0,0.0995 -0.41672,1.2143 -0.92604,2.4774 -0.50932,1.2631 -0.92604,2.44383 -0.92604,2.62383 0,0.54488 0.68287,-0.63255 1.1828,-2.03942 z M 277.69822,83.889252 c 0.0533,-2.44458 0.1563,-4.73755 0.22891,-5.09549 0.0726,-0.35794 0.20657,-1.48903 0.2977,-2.51354 0.0911,-1.02451 0.20609,-1.93078 0.25549,-2.01393 0.0494,-0.0831 0.16507,-0.85705 0.25704,-1.71979 0.092,-0.86274 0.27669,-1.6083 0.41047,-1.65681 0.13379,-0.0485 0.24324,-0.47118 0.24324,-0.93927 0,-0.46809 0.12732,-0.97839 0.28292,-1.13399 0.15561,-0.15561 0.32509,-0.50684 0.37663,-0.78052 0.0515,-0.27369 0.11771,-0.52737 0.14703,-0.56375 0.0293,-0.0364 0.0757,-0.15544 0.10314,-0.26459 0.20329,-0.8098 1.24134,-3.87585 1.39613,-4.1237 0.10581,-0.16944 0.22617,-0.54619 0.26746,-0.83723 0.0413,-0.29104 0.29868,-1.00542 0.57197,-1.5875 0.2733,-0.58209 0.88612,-1.89177 1.36182,-2.91042 0.4757,-1.01864 1.26355,-2.45972 1.75078,-3.20238 0.48723,-0.74267 0.88587,-1.43578 0.88587,-1.54026 0,-0.10447 0.1786,-0.36854 0.39688,-0.58682 0.21828,-0.21828 0.39687,-0.53057 0.39687,-0.69397 0,-0.44575 -1.17984,1.21978 -2.86122,4.03906 -0.82447,1.38244 -1.58954,2.55323 -1.70016,2.60173 -0.11061,0.0485 -0.20112,0.24149 -0.20112,0.42884 0,0.18736 -0.37117,1.21923 -0.82483,2.29306 -0.94699,2.24155 -1.04696,2.49202 -1.78248,4.46595 -0.5107,1.37054 -0.89471,2.71548 -1.20874,4.23333 -0.23425,1.13228 -1.07774,4.08772 -1.24596,4.36563 -0.19694,0.32536 -0.50471,1.98564 -0.65841,3.55179 -0.0755,0.76951 9.2e-4,1.24541 0.22309,1.38906 0.26712,0.17272 0.25477,0.27313 -0.0589,0.47905 -0.30046,0.19724 -0.31076,0.26152 -0.0424,0.26459 0.26615,0.003 0.34125,0.44905 0.30138,1.78999 -0.0942,3.16927 9.8e-4,7.03812 0.16906,6.87004 0.0899,-0.0899 0.20706,-2.16358 0.26035,-4.60816 z m -1.83057,-9.91826 c -0.0845,-0.21107 -0.14716,-0.14838 -0.15986,0.15985 -0.0115,0.27891 0.0511,0.43518 0.13897,0.34726 0.0879,-0.0879 0.0973,-0.31612 0.0209,-0.50711 z m 99.56717,-20.96915 c 0,-0.0642 -0.11906,-0.19027 -0.26459,-0.2802 -0.14552,-0.0899 -0.26458,-0.0374 -0.26458,0.11667 0,0.15411 0.11906,0.2802 0.26458,0.2802 0.14553,0 0.26459,-0.0525 0.26459,-0.11667 z m -74.87708,-9.14374 c 0,-0.14552 -0.0525,-0.26459 -0.11668,-0.26459 -0.0642,0 -0.19026,0.11907 -0.2802,0.26459 -0.0899,0.14552 -0.0374,0.26458 0.11668,0.26458 0.15411,0 0.2802,-0.11906 0.2802,-0.26458 z m 1.57984,-1.048 c 0.21406,-0.13538 0.32443,-0.31092 0.24527,-0.39009 -0.0792,-0.0792 -0.37338,0.0296 -0.6538,0.24178 -0.55784,0.42203 -0.21887,0.54509 0.40853,0.14831 z m 2.6435,-1.60859 c 0.50382,-0.43065 0.79698,-0.783 0.65146,-0.783 -0.14552,0 -0.6768,0.35235 -1.18063,0.783 -0.50383,0.43065 -0.79698,0.783 -0.65146,0.783 0.14552,0 0.6768,-0.35235 1.18063,-0.783 z m 2.13169,-1.45051 c 0.2796,-0.33691 0.26323,-0.37563 -0.0999,-0.23628 -0.23887,0.0917 -0.4343,0.27298 -0.4343,0.40293 0,0.34025 0.15316,0.29246 0.53419,-0.16665 z m 2.99376,-1.67522 c 1.13368,-0.63365 2.0017,-1.21163 1.92894,-1.28439 -0.16538,-0.16538 -4.05763,1.96661 -4.29679,2.35358 -0.22637,0.36627 -0.091,0.30513 2.36785,-1.06919 z m 34.83662,106.632658 c 0,-0.12127 0.17336,-0.22049 0.38524,-0.22049 0.21188,0 0.32391,0.0992 0.24897,0.22049 -0.0749,0.12127 -0.24831,0.22048 -0.38524,0.22048 -0.13693,0 -0.24897,-0.0992 -0.24897,-0.22048 z m 1.98438,-0.57327 c 0.73507,-0.31587 1.25355,-0.31587 1.05833,0 -0.0899,0.14553 -0.48392,0.25622 -0.87551,0.24599 -0.63575,-0.0166 -0.65532,-0.0429 -0.18282,-0.24599 z m 4.30436,-0.30915 c 0.15375,-0.15375 0.43572,-0.22748 0.6266,-0.16386 0.19816,0.0661 0.0782,0.18599 -0.27955,0.27955 -0.44009,0.11508 -0.54339,0.0806 -0.34705,-0.11569 z m 9.58626,-0.46064 c 0.21828,-0.12349 0.69453,-0.30343 1.05834,-0.39986 l 0.66145,-0.17534 -0.66145,0.39854 c -0.36381,0.2192 -0.84006,0.39914 -1.05834,0.39987 -0.35278,10e-4 -0.35278,-0.0236 0,-0.22321 z m -18.83502,-1.52761 c 0.19099,-0.0764 0.4192,-0.067 0.50711,0.0209 0.0879,0.0879 -0.0683,0.15045 -0.34726,0.13896 -0.30823,-0.0127 -0.37092,-0.0754 -0.15985,-0.15985 z m 10.63294,-1.6898 c 0,-0.21422 1.55417,-0.63224 1.72299,-0.46342 0.0537,0.0537 -0.312,0.22587 -0.81267,0.38258 -0.50068,0.15671 -0.91032,0.19309 -0.91032,0.0808 z m 20.35289,-17.54156 c 0.71621,-0.7774 0.85752,-0.85351 0.66807,-0.35981 -0.071,0.18503 -0.39469,0.49833 -0.7193,0.69623 -0.56289,0.34317 -0.56052,0.3276 0.0512,-0.33642 z m 1.73982,-2.01915 c 0.0899,-0.14552 0.21602,-0.26458 0.28019,-0.26458 0.0642,0 0.11668,0.11906 0.11668,0.26458 0,0.14552 -0.12609,0.26458 -0.2802,0.26458 -0.15411,0 -0.20661,-0.11906 -0.11667,-0.26458 z m 1.05833,-1.05833 c 0.26339,-0.29105 0.52098,-0.52917 0.57242,-0.52917 0.0514,0 -0.0552,0.23812 -0.23695,0.52917 -0.18176,0.29104 -0.43934,0.52916 -0.57241,0.52916 -0.13307,0 -0.0265,-0.23812 0.23694,-0.52916 z m -72.21423,-1.24536 c -0.14359,-0.37709 -0.1132,-0.40748 0.14811,-0.14812 0.18082,0.17948 0.26211,0.39297 0.18065,0.47444 -0.0815,0.0815 -0.22941,-0.0654 -0.32876,-0.32632 z m 73.53715,-0.60673 c 0.0899,-0.14552 0.28258,-0.26458 0.4281,-0.26458 0.14552,0 0.191,0.11906 0.10106,0.26458 -0.0899,0.14552 -0.28258,0.26459 -0.4281,0.26459 -0.14552,0 -0.191,-0.11907 -0.10106,-0.26459 z m 0.91657,-1.01485 c 0.17431,-0.33988 0.38949,-0.54541 0.47818,-0.45672 0.0887,0.0887 -0.0539,0.36678 -0.31693,0.61798 -0.45714,0.43662 -0.46423,0.42952 -0.16125,-0.16126 z m 2.6553,-3.46745 c 0,-0.13693 0.1177,-0.32171 0.26155,-0.41062 0.14999,-0.0927 0.19434,0.0135 0.10399,0.24897 -0.1759,0.45837 -0.36554,0.54224 -0.36554,0.16165 z m 1.33102,-2.26457 c 0,-0.14552 0.11542,-0.44318 0.25648,-0.66146 0.14106,-0.21828 0.25648,-0.27781 0.25648,-0.13229 0,0.14552 -0.11542,0.44318 -0.25648,0.66146 -0.14106,0.21828 -0.25648,0.27781 -0.25648,0.13229 z m 0.78565,-1.28989 c 0,-0.0546 0.41579,-1.01166 0.92398,-2.12681 0.5082,-1.11516 1.11721,-2.6183 1.35338,-3.34033 0.23616,-0.72202 0.53474,-1.31276 0.66351,-1.31276 0.34266,0 0.38825,-0.13902 -1.08454,3.30729 -1.1563,2.70571 -1.85633,4.01526 -1.85633,3.47261 z m 3.96875,-6.89658 c 0,-0.20969 0.10796,-0.44798 0.23991,-0.52953 0.13195,-0.0815 0.17759,0.09 0.10143,0.38126 -0.16156,0.6178 -0.34134,0.69589 -0.34134,0.14827 z m 0.068,-5.641348 c 0.0245,-0.32558 0.13832,-0.59197 0.25287,-0.59197 0.2761,0 0.25722,0.30665 -0.0486,0.79041 -0.19555,0.30929 -0.23927,0.26681 -0.20423,-0.19844 z m 0.42971,-1.97272 c 0.12181,-0.73473 0.15907,-0.77199 0.24238,-0.24238 0.0541,0.3442 -0.0106,0.7349 -0.14393,0.86821 -0.14679,0.14678 -0.18561,-0.10005 -0.0985,-0.62583 z m 0.15141,-1.24515 c 0.0832,-0.13456 0.19885,-0.73931 0.25708,-1.3439 0.14131,-1.467 0.4167,-1.68462 0.4167,-0.32927 0,1.22957 -0.20566,1.91782 -0.57309,1.91782 -0.13854,0 -0.18385,-0.11009 -0.10069,-0.24465 z m -90.98732,-33.69957 c 0.0994,-0.26094 0.24731,-0.40779 0.32877,-0.32632 0.0815,0.0815 1.7e-4,0.29495 -0.18065,0.47443 -0.26131,0.25936 -0.2917,0.22897 -0.14812,-0.14811 z m -11.11249,-8.20209 c 0.0994,-0.26093 0.2473,-0.40778 0.32876,-0.32632 0.0815,0.0815 1.7e-4,0.29496 -0.18065,0.47443 -0.26131,0.25937 -0.2917,0.22898 -0.14811,-0.14811 z m 14.40278,-17.58588 c 0,-0.11051 0.26789,-0.3655 0.59531,-0.56664 0.5932,-0.36441 0.59352,-0.3637 0.0913,0.20093 -0.53925,0.60624 -0.6866,0.68473 -0.6866,0.36571 z m 72.64743,-0.99537 c -0.28042,-0.21215 -0.45723,-0.43834 -0.39292,-0.50265 0.0643,-0.0643 0.41281,0.1104 0.77443,0.38826 0.36163,0.27785 0.53845,0.50404 0.39293,0.50265 -0.14552,-10e-4 -0.49402,-0.17611 -0.77444,-0.38826 z m -70.26618,-0.81589 c 0,-0.27679 0.69384,-0.83085 1.26911,-1.01343 0.85702,-0.27201 0.71094,-0.0126 -0.34307,0.60932 -0.50932,0.30051 -0.92604,0.48236 -0.92604,0.40411 z m 4.6302,-2.7503 c 0.0899,-0.14552 0.21603,-0.26458 0.2802,-0.26458 0.0642,0 0.11668,0.11906 0.11668,0.26458 0,0.14552 -0.12609,0.26458 -0.2802,0.26458 -0.15411,0 -0.20661,-0.11906 -0.11668,-0.26458 z m 1.7198,-1.05833 c 0.51815,-0.33486 0.86841,-0.33486 0.66145,0 -0.0899,0.14552 -0.36485,0.26276 -0.61092,0.26053 -0.38557,-0.004 -0.39256,-0.0395 -0.0505,-0.26053 z m 4.89479,-1.85209 c 0.0899,-0.14552 0.28258,-0.26458 0.4281,-0.26458 0.14552,0 0.191,0.11906 0.10106,0.26458 -0.0899,0.14553 -0.28258,0.26459 -0.4281,0.26459 -0.14552,0 -0.191,-0.11906 -0.10106,-0.26459 z m 1.4552,-0.36447 c 0,-0.0549 0.20836,-0.2633 0.46303,-0.46303 0.41964,-0.3291 0.429,-0.31974 0.0999,0.0999 -0.34565,0.44072 -0.56292,0.58088 -0.56292,0.36312 z"
       id="path1-3" /><g
       id="g1"
       transform="matrix(2.0424116,0,0,2.0424116,-445.92121,-49.434528)"><text
         xml:space="preserve"
         style="font-weight:bold;font-size:38.5735px;font-family:'Open Sans';-inkscape-font-specification:'Open Sans Bold';text-align:center;writing-mode:lr-tb;direction:ltr;text-anchor:middle;display:inline;fill:#ffffff;stroke:#000000;stroke-width:0.904064"
         x="501.04547"
         y="77.182083"
         id="text1-6-3"><tspan
           id="tspan1-2-6"
           style="font-style:normal;font-variant:normal;font-weight:normal;font-stretch:normal;font-family:'Open Sans';-inkscape-font-specification:'Open Sans';fill:#000000;fill-opacity:1;stroke-width:0.904064"
           x="501.04547"
           y="77.182083">iterthink</tspan></text></g></g></svg>
